<?xml version="1.0" encoding="UTF-8"?>
<svg xmlns:xlink="http://www.w3.org/1999/xlink" width="500px" height="500px" viewBox="0 0 500 500"
     xmlns="http://www.w3.org/2000/svg" version="1.1">
  <!-- Generated by Pixelmator Pro 1.7 -->
  <path id="Path"
        d="M270.321 487 C253.885 487 228.593 486.783 228.593 486.783 228.593 486.783 210.701 489.51 207.62 465.934 204.539 442.361 200.992 410.447 200.992 410.447 L172.956 396.331 124.6 430.861 C124.6 430.861 109.451 443.401 96.781 431.078 84.22 418.864 68.637 402.955 68.637 402.955 68.637 402.955 59.888 387.507 68.745 375.374 84.469 353.834 103.518 327.053 103.518 327.053 L89.5 299.472 C89.5 299.472 65.639 296.527 41.701 292.917 31.9 291.44 13.108 289.556 13.108 271.132 13.108 252.709 13 229.869 13 229.869 13 229.869 15.863 210.308 39.759 208.07 51.795 206.944 89.5 201.636 89.5 201.636 L103.736 181.114 69.723 127.798 C69.723 127.798 59.152 111.118 71.679 98.154 84.205 85.191 106.887 69.813 106.887 69.813 106.887 69.813 120.325 60.387 135.684 73.288 156.508 90.785 172.739 104.452 172.739 104.452 L201.263 90.648 208.055 35.174 C208.055 35.174 214.757 14 228.593 14 242.428 14 270.429 14.217 270.429 14.217 270.429 14.217 289.587 15.257 291.293 35.174 292.999 55.093 298.139 90.336 298.139 90.336 L325.958 104.452 374.857 69.705 C374.857 69.705 389.023 56.155 402.676 70.03 416.327 83.908 430.494 97.828 430.494 97.828 430.494 97.828 442.845 109.228 430.494 125.301 418.141 141.376 395.612 173.838 395.612 173.838 L409.739 201.962 464.941 208.803 C464.941 208.803 485.914 213.484 485.914 229.543 485.914 245.604 485.805 264.29 485.805 264.29 485.805 264.29 489.467 288.12 465.05 292.197 440.631 296.276 409.739 299.255 409.739 299.255 L395.721 320.104 426.256 366.253 C426.256 366.253 441.828 384.55 430.494 396.44 419.159 408.331 395.721 431.187 395.721 431.187 395.721 431.187 379.401 440.38 364.425 427.061 350.916 415.048 332.912 396.548 332.912 396.548 L298.574 410.338 291.185 465.826 C291.185 465.826 286.754 487 270.321 487 Z M249.565 319.995 C287.974 319.995 319.111 288.882 319.111 250.5 319.111 212.12 287.974 181.005 249.565 181.005 211.155 181.005 180.019 212.12 180.019 250.5 180.019 288.882 211.155 319.995 249.565 319.995 Z"
        fill="#275a92" fill-opacity="1" stroke="#091a34" stroke-width="12" stroke-opacity="1"
        stroke-linejoin="round"/>
  <defs>
    <text id="string" transform="matrix(1.0 0.0 0.0 1.0 56.0 80.5)">
      <tspan text-decoration="none" y="278.0" x="1.0" font-family="LucidaGrande, Lucida Grande" fill="#efb219"
             font-size="288">Z
      </tspan>
      <tspan text-decoration="none" x="175.09375" y="278.0" font-family="Sana, Sana" fill="#efb219"
             font-size="288">33
      </tspan>
    </text>
  </defs>
  <use id="Z33" stroke="#ff9300" stroke-opacity="1" stroke-linecap="round" stroke-width="4" xlink:href="#string"/>
</svg>
